<svg width="114" height="32" viewBox="0 0 114 32" fill="none" xmlns="http://www.w3.org/2000/svg">
<rect x="14.0636" y="28.4994" width="16.0726" height="2.74233" rx="1.37116" fill="#7B72E4"/>
<g clip-path="url(#clip0_909_805)">
<rect width="43.5298" height="25.9505" rx="2" fill="#7B72E4"/>
<rect width="43.5298" height="26.0522" fill="url(#paint0_linear_909_805)"/>
<rect x="-28.1055" y="41.7356" width="142" height="70" transform="rotate(-30 -28.1055 41.7356)" fill="white" fill-opacity="0.07"/>
</g>
<path d="M59.4219 8.07539H56.0057L61.027 22.6208H64.9901L70.0043 8.07539H66.5952L63.0725 19.1265H62.9375L59.4219 8.07539ZM71.6982 22.6208H74.7237V11.7118H71.6982V22.6208ZM73.2181 10.3055C74.12 10.3055 74.8587 9.61659 74.8587 8.77142C74.8587 7.93335 74.12 7.24443 73.2181 7.24443C72.3232 7.24443 71.5845 7.93335 71.5845 8.77142C71.5845 9.61659 72.3232 10.3055 73.2181 10.3055ZM82.0764 22.8339C85.386 22.8339 87.4457 20.5683 87.4457 17.2089C87.4457 13.8282 85.386 11.5697 82.0764 11.5697C78.7667 11.5697 76.707 13.8282 76.707 17.2089C76.707 20.5683 78.7667 22.8339 82.0764 22.8339ZM82.0906 20.4902C80.5636 20.4902 79.7823 19.091 79.7823 17.1876C79.7823 15.2842 80.5636 13.878 82.0906 13.878C83.5892 13.878 84.3704 15.2842 84.3704 17.1876C84.3704 19.091 83.5892 20.4902 82.0906 20.4902ZM92.4386 8.07539H89.413V22.6208H92.4386V8.07539ZM99.8338 22.8339C102.533 22.8339 104.351 21.52 104.777 19.4958L101.979 19.3112C101.673 20.1422 100.892 20.5754 99.8835 20.5754C98.3708 20.5754 97.4119 19.574 97.4119 17.9476V17.9405H104.841V17.1095C104.841 13.4021 102.597 11.5697 99.7131 11.5697C96.5029 11.5697 94.4219 13.8495 94.4219 17.216C94.4219 20.6748 96.4744 22.8339 99.8338 22.8339ZM97.4119 16.0655C97.4759 14.8226 98.4205 13.8282 99.7628 13.8282C101.077 13.8282 101.986 14.7657 101.993 16.0655H97.4119ZM112.618 11.7118H110.565V9.09812H107.54V11.7118H106.048V13.9845H107.54V19.6663C107.526 21.8041 108.982 22.8623 111.176 22.77C111.957 22.7416 112.511 22.5853 112.817 22.4859L112.341 20.2345C112.192 20.2629 111.872 20.3339 111.588 20.3339C110.984 20.3339 110.565 20.1066 110.565 19.2686V13.9845H112.618V11.7118Z" fill="url(#paint1_linear_909_805)"/>
<defs>
<linearGradient id="paint0_linear_909_805" x1="-24.6756" y1="13.8971" x2="0.591282" y2="53.4688" gradientUnits="userSpaceOnUse">
<stop stop-color="#E883F1"/>
<stop offset="1" stop-color="#5347DC"/>
</linearGradient>
<linearGradient id="paint1_linear_909_805" x1="84.5298" y1="5.62085" x2="84.5298" y2="25.6208" gradientUnits="userSpaceOnUse">
<stop stop-color="white"/>
<stop offset="1" stop-color="white" stop-opacity="0.8"/>
</linearGradient>
<clipPath id="clip0_909_805">
<rect width="43.5298" height="25.9505" rx="2" fill="white"/>
</clipPath>
</defs>
</svg>
